<svg width="20" height="20" viewBox="0 0 20 20" fill="none" xmlns="http://www.w3.org/2000/svg">
<path id="Vector" d="M8.57846 2.49241C8.87977 2.28596 9.2223 2.14737 9.5824 2.08621C9.94249 2.02505 10.3116 2.04278 10.6642 2.13817C11.0167 2.23356 11.3444 2.40435 11.6245 2.63873C11.9047 2.87311 12.1306 3.16551 12.2867 3.49572L18.1215 15.8326C19.3315 14.1544 19.9881 12.1406 19.9998 10.0717C20.0387 4.54736 15.5927 0.0391411 10.0695 0.000253173C4.54634 -0.0386347 0.0392313 4.40736 0.000343383 9.93056C-0.0171059 12.031 0.630874 14.0831 1.85141 15.7926L2.08585 15.7415L5.89353 14.9015C6.00075 14.8777 6.05741 15.0226 5.96353 15.0788L2.81138 16.9476C3.73419 17.9059 4.83955 18.6696 6.06228 19.1938C7.285 19.718 8.60032 19.9921 9.93065 19.9997C13.0639 20.022 15.8688 18.5998 17.7177 16.3576L8.17458 6.3112C7.92314 6.04646 7.73216 5.73029 7.61483 5.38454C7.4975 5.03878 7.45663 4.67168 7.49503 4.30858C7.53343 3.94549 7.65019 3.59505 7.83725 3.28149C8.02431 2.96792 8.2772 2.6987 8.57846 2.49241ZM10.3695 13.8332L4.22524 14.3666C4.06925 14.3792 3.91239 14.3579 3.7654 14.3042C3.61841 14.2505 3.48477 14.1656 3.37367 14.0554C3.26256 13.9452 3.17661 13.8123 3.12171 13.6657C3.06681 13.5192 3.04426 13.3625 3.05561 13.2064C3.06697 13.0503 3.11195 12.8986 3.18747 12.7615C3.263 12.6244 3.36728 12.5053 3.49316 12.4124C3.61905 12.3194 3.76355 12.2548 3.91676 12.2229C4.06998 12.191 4.22827 12.1927 4.38079 12.2277L10.3834 13.6421C10.4906 13.6682 10.4784 13.8232 10.3695 13.8332ZM7.52515 8.43004L14.9755 14.4571C15.0605 14.526 14.9839 14.661 14.8811 14.6221L5.91964 11.2261C5.69866 11.1424 5.49849 11.0117 5.33294 10.8431C5.16739 10.6745 5.04042 10.4719 4.96078 10.2494C4.88115 10.027 4.85076 9.78986 4.8717 9.55449C4.89265 9.31912 4.96443 9.0911 5.0821 8.88618C5.19977 8.68126 5.36051 8.50433 5.55323 8.36759C5.74595 8.23086 5.96605 8.13759 6.19834 8.09422C6.43063 8.05085 6.66956 8.05841 6.89863 8.11639C7.12771 8.17437 7.34147 8.28138 7.52515 8.43004Z" fill="#21D969"/>
</svg>
