<svg width="24" height="24" viewBox="0 0 24 24" fill="none" xmlns="http://www.w3.org/2000/svg">
<g id="Frame" clip-path="url(#clip0_6_14916)">
<path id="Vector" d="M12 24C18.6274 24 24 18.6274 24 12C24 5.37258 18.6274 0 12 0C5.37258 0 0 5.37258 0 12C0 18.6274 5.37258 24 12 24Z" fill="#EEEEEE"/>
<path id="Vector_2" d="M12 4.875C13.0355 4.875 13.875 4.03553 13.875 3C13.875 1.96447 13.0355 1.125 12 1.125C10.9645 1.125 10.125 1.96447 10.125 3C10.125 4.03553 10.9645 4.875 12 4.875Z" fill="#46063D"/>
<path id="Vector_3" d="M12 9.375C13.0355 9.375 13.875 8.53553 13.875 7.5C13.875 6.46447 13.0355 5.625 12 5.625C10.9645 5.625 10.125 6.46447 10.125 7.5C10.125 8.53553 10.9645 9.375 12 9.375Z" fill="#E78AF5"/>
<path id="Vector_4" d="M8.10278 7.125C9.13832 7.125 9.97778 6.28553 9.97778 5.25C9.97778 4.21447 9.13832 3.375 8.10278 3.375C7.06725 3.375 6.22778 4.21447 6.22778 5.25C6.22778 6.28553 7.06725 7.125 8.10278 7.125Z" fill="#ECB922"/>
<path id="Vector_5" d="M4.20581 9.375C5.24134 9.375 6.08081 8.53553 6.08081 7.5C6.08081 6.46447 5.24134 5.625 4.20581 5.625C3.17028 5.625 2.33081 6.46447 2.33081 7.5C2.33081 8.53553 3.17028 9.375 4.20581 9.375Z" fill="#8AECF5"/>
<path id="Vector_6" d="M8.10278 11.625C9.13832 11.625 9.97778 10.7855 9.97778 9.75C9.97778 8.71447 9.13832 7.875 8.10278 7.875C7.06725 7.875 6.22778 8.71447 6.22778 9.75C6.22778 10.7855 7.06725 11.625 8.10278 11.625Z" fill="#0F4606"/>
<path id="Vector_7" d="M4.20581 13.875C5.24134 13.875 6.08081 13.0355 6.08081 12C6.08081 10.9645 5.24134 10.125 4.20581 10.125C3.17028 10.125 2.33081 10.9645 2.33081 12C2.33081 13.0355 3.17028 13.875 4.20581 13.875Z" fill="#ECB922"/>
<path id="Vector_8" d="M4.20581 18.375C5.24134 18.375 6.08081 17.5355 6.08081 16.5C6.08081 15.4645 5.24134 14.625 4.20581 14.625C3.17028 14.625 2.33081 15.4645 2.33081 16.5C2.33081 17.5355 3.17028 18.375 4.20581 18.375Z" fill="#46063D"/>
<path id="Vector_9" d="M8.10278 16.125C9.13832 16.125 9.97778 15.2855 9.97778 14.25C9.97778 13.2145 9.13832 12.375 8.10278 12.375C7.06725 12.375 6.22778 13.2145 6.22778 14.25C6.22778 15.2855 7.06725 16.125 8.10278 16.125Z" fill="#E78AF5"/>
<path id="Vector_10" d="M8.10278 20.625C9.13832 20.625 9.97778 19.7855 9.97778 18.75C9.97778 17.7145 9.13832 16.875 8.10278 16.875C7.06725 16.875 6.22778 17.7145 6.22778 18.75C6.22778 19.7855 7.06725 20.625 8.10278 20.625Z" fill="#070646"/>
<path id="Vector_11" d="M12 22.875C13.0355 22.875 13.875 22.0355 13.875 21C13.875 19.9645 13.0355 19.125 12 19.125C10.9645 19.125 10.125 19.9645 10.125 21C10.125 22.0355 10.9645 22.875 12 22.875Z" fill="#3A22EC"/>
<path id="Vector_12" d="M12 18.375C13.0355 18.375 13.875 17.5355 13.875 16.5C13.875 15.4645 13.0355 14.625 12 14.625C10.9645 14.625 10.125 15.4645 10.125 16.5C10.125 17.5355 10.9645 18.375 12 18.375Z" fill="#064627"/>
<path id="Vector_13" d="M15.8972 20.625C16.9328 20.625 17.7722 19.7855 17.7722 18.75C17.7722 17.7145 16.9328 16.875 15.8972 16.875C14.8617 16.875 14.0222 17.7145 14.0222 18.75C14.0222 19.7855 14.8617 20.625 15.8972 20.625Z" fill="#F3F58A"/>
<path id="Vector_14" d="M19.7942 18.375C20.8297 18.375 21.6692 17.5355 21.6692 16.5C21.6692 15.4645 20.8297 14.625 19.7942 14.625C18.7587 14.625 17.9192 15.4645 17.9192 16.5C17.9192 17.5355 18.7587 18.375 19.7942 18.375Z" fill="#EC224B"/>
<path id="Vector_15" d="M15.8972 16.125C16.9328 16.125 17.7722 15.2855 17.7722 14.25C17.7722 13.2145 16.9328 12.375 15.8972 12.375C14.8617 12.375 14.0222 13.2145 14.0222 14.25C14.0222 15.2855 14.8617 16.125 15.8972 16.125Z" fill="#F5DA8A"/>
<path id="Vector_16" d="M19.7942 13.875C20.8297 13.875 21.6692 13.0355 21.6692 12C21.6692 10.9645 20.8297 10.125 19.7942 10.125C18.7587 10.125 17.9192 10.9645 17.9192 12C17.9192 13.0355 18.7587 13.875 19.7942 13.875Z" fill="#F3F58A"/>
<path id="Vector_17" d="M19.7942 9.375C20.8297 9.375 21.6692 8.53553 21.6692 7.5C21.6692 6.46447 20.8297 5.625 19.7942 5.625C18.7587 5.625 17.9192 6.46447 17.9192 7.5C17.9192 8.53553 18.7587 9.375 19.7942 9.375Z" fill="#3A22EC"/>
<path id="Vector_18" d="M15.8972 11.625C16.9328 11.625 17.7722 10.7855 17.7722 9.75C17.7722 8.71447 16.9328 7.875 15.8972 7.875C14.8617 7.875 14.0222 8.71447 14.0222 9.75C14.0222 10.7855 14.8617 11.625 15.8972 11.625Z" fill="#064627"/>
<path id="Vector_19" d="M15.8972 7.125C16.9328 7.125 17.7722 6.28553 17.7722 5.25C17.7722 4.21447 16.9328 3.375 15.8972 3.375C14.8617 3.375 14.0222 4.21447 14.0222 5.25C14.0222 6.28553 14.8617 7.125 15.8972 7.125Z" fill="#070646"/>
<path id="Vector_20" d="M12 13.875C13.0355 13.875 13.875 13.0355 13.875 12C13.875 10.9645 13.0355 10.125 12 10.125C10.9645 10.125 10.125 10.9645 10.125 12C10.125 13.0355 10.9645 13.875 12 13.875Z" fill="#063B46"/>
</g>
<defs>
<clipPath id="clip0_6_14916">
<rect width="24" height="24" fill="white"/>
</clipPath>
</defs>
</svg>
