<svg width="24" height="24" viewBox="0 0 24 24" fill="none" xmlns="http://www.w3.org/2000/svg">
<path d="M18.7491 9.71006V9.00545C18.7491 5.13672 15.7274 2.00049 12 2.00049C8.27256 2.00049 5.25087 5.13672 5.25087 9.00545V9.71006C5.25087 10.5556 5.00972 11.3823 4.5578 12.0859L3.45036 13.81C2.43882 15.3848 3.21105 17.5254 4.97036 18.0234C9.57274 19.3262 14.4273 19.3262 19.0296 18.0234C20.789 17.5254 21.5612 15.3848 20.5496 13.81L19.4422 12.0859C18.9903 11.3823 18.7491 10.5556 18.7491 9.71006Z" stroke="white" stroke-width="1.5"/>
<path d="M7.5 19.0005C8.15503 20.7483 9.92246 22.0005 12 22.0005C14.0775 22.0005 15.845 20.7483 16.5 19.0005" stroke="#21D969" stroke-width="1.5" stroke-linecap="round"/>
<path d="M12 6.00049V10.0005" stroke="#21D969" stroke-width="1.5" stroke-linecap="round"/>
</svg>
