<svg width="20" height="20" viewBox="0 0 20 20" fill="none" xmlns="http://www.w3.org/2000/svg">
<path d="M13.3334 10.7498V14.2498C13.3334 17.1665 12.1667 18.3332 9.25002 18.3332H5.75002C2.83335 18.3332 1.66669 17.1665 1.66669 14.2498V10.7498C1.66669 7.83317 2.83335 6.6665 5.75002 6.6665H9.25002C12.1667 6.6665 13.3334 7.83317 13.3334 10.7498Z" stroke="#E7E8EB" stroke-width="1.5" stroke-linecap="round" stroke-linejoin="round"/>
<path opacity="0.4" d="M18.3334 5.74984V9.24984C18.3334 12.1665 17.1667 13.3332 14.25 13.3332H13.3334V10.7498C13.3334 7.83317 12.1667 6.6665 9.25002 6.6665H6.66669V5.74984C6.66669 2.83317 7.83335 1.6665 10.75 1.6665H14.25C17.1667 1.6665 18.3334 2.83317 18.3334 5.74984Z" stroke="#E7E8EB" stroke-width="1.5" stroke-linecap="round" stroke-linejoin="round"/>
</svg>
