<svg width="32" height="32" viewBox="0 0 32 32" fill="none" xmlns="http://www.w3.org/2000/svg">
<circle cx="16" cy="16" r="16" fill="#3C3E50"/>
<path opacity="0.4" d="M10.3333 23.2H21.6666C21.9333 23.2 22.2 23 22.2 22.6666C22.2 22.3333 22 22.1333 21.6666 22.1333H10.3333C10.0666 22.1333 9.79995 22.3333 9.79995 22.6666C9.79995 23 10.0666 23.2 10.3333 23.2Z" fill="#21D969"/>
<path d="M11.3332 20.1329C11.4666 20.1329 11.5999 20.0663 11.6666 19.9996L20.9999 10.6663C21.1999 10.4663 21.1999 10.1996 20.9999 9.99961C20.7999 9.79961 20.4666 9.79961 20.2666 9.99961L10.9332 19.3329C10.7332 19.5329 10.7332 19.8663 10.9332 20.0663C11.0666 20.1329 11.1999 20.1329 11.3332 20.1329Z" fill="#21D969"/>
<path d="M20.6666 17.6665C20.9333 17.6665 21.2 17.4665 21.2 17.1331V10.3331C21.2 10.0665 21 9.7998 20.6666 9.7998H13.8C13.5333 9.7998 13.2666 9.9998 13.2666 10.3331C13.2666 10.6665 13.4666 10.8665 13.8 10.8665H20.1333V17.1998C20.1333 17.4665 20.4 17.6665 20.6666 17.6665Z" fill="#21D969"/>
</svg>
