<svg width="25" height="24" viewBox="0 0 25 24" fill="none" xmlns="http://www.w3.org/2000/svg">
<path d="M3.5249 10.0005C3.5249 6.22925 3.5249 4.34363 4.69648 3.17206C5.86805 2.00049 7.75367 2.00049 11.5249 2.00049H13.5249C17.2961 2.00049 19.1818 2.00049 20.3533 3.17206C21.5249 4.34363 21.5249 6.22925 21.5249 10.0005V14.0005C21.5249 17.7717 21.5249 19.6573 20.3533 20.8289C19.1818 22.0005 17.2961 22.0005 13.5249 22.0005H11.5249C7.75367 22.0005 5.86805 22.0005 4.69648 20.8289C3.5249 19.6573 3.5249 17.7717 3.5249 14.0005V10.0005Z" stroke="#C1C5E1" stroke-width="1.5"/>
<path d="M8.5249 10.0005H16.5249" stroke="#21D969" stroke-width="1.5" stroke-linecap="round"/>
<path d="M8.5249 14.0005H13.5249" stroke="#21D969" stroke-width="1.5" stroke-linecap="round"/>
</svg>
