<svg width="25" height="24" viewBox="0 0 25 24" fill="none" xmlns="http://www.w3.org/2000/svg">
<path d="M2.5249 12.0005C2.5249 7.28644 2.5249 4.92942 3.98937 3.46495C5.45383 2.00049 7.81086 2.00049 12.5249 2.00049C17.2389 2.00049 19.596 2.00049 21.0604 3.46495C22.5249 4.92942 22.5249 7.28644 22.5249 12.0005C22.5249 16.7145 22.5249 19.0716 21.0604 20.536C19.596 22.0005 17.2389 22.0005 12.5249 22.0005C7.81086 22.0005 5.45383 22.0005 3.98937 20.536C2.5249 19.0716 2.5249 16.7145 2.5249 12.0005Z" stroke="#C1C5E1" stroke-width="1.5"/>
<path d="M17.5249 12.6671C17.5249 16.9338 13.9693 18.0004 12.1916 18.0004C10.636 18.0004 7.5249 16.9338 7.5249 12.6671C7.5249 10.8113 8.58783 9.63319 9.48084 9.04018C9.88911 8.76907 10.3969 8.94235 10.4233 9.43174C10.4811 10.5025 11.3063 11.3626 11.9454 10.5015C12.5303 9.71342 12.819 8.64316 12.819 8.00044C12.819 7.05366 13.7774 6.45202 14.5257 7.03209C15.9842 8.16273 17.5249 10.0563 17.5249 12.6671Z" stroke="#21D969" stroke-width="1.5"/>
</svg>
