<svg width="36" height="36" viewBox="0 0 36 36" fill="none" xmlns="http://www.w3.org/2000/svg">
<path d="M15.4416 4.48646C15.984 4.11483 16.6006 3.86536 17.2488 3.75527C17.8969 3.64518 18.5613 3.67709 19.196 3.8488C19.8306 4.02052 20.4204 4.32794 20.9247 4.74984C21.4289 5.17174 21.8356 5.69806 22.1166 6.29246L32.6196 28.4995C34.7976 25.4785 35.9795 21.8536 36.0006 18.1295C36.0706 8.18546 28.0676 0.0704557 18.1256 0.000455722C8.18362 -0.0695443 0.0706181 7.93346 0.000618105 17.8755C-0.0307914 21.6564 1.1356 25.3502 3.33262 28.4275L3.75462 28.3355L10.6086 26.8235C10.8016 26.7805 10.9036 27.0415 10.7346 27.1425L5.06062 30.5065C6.72171 32.2314 8.71142 33.6062 10.9124 34.5498C13.1133 35.4933 15.481 35.9866 17.8756 36.0005C23.5156 36.0405 28.5646 33.4805 31.8926 29.4445L14.7146 11.3605C14.262 10.8839 13.9182 10.3148 13.707 9.69241C13.4959 9.07003 13.4223 8.40923 13.4914 7.75564C13.5605 7.10206 13.7707 6.47126 14.1074 5.90683C14.4441 5.3424 14.8993 4.85778 15.4416 4.48646ZM18.6656 24.9005L7.60562 25.8605C7.32484 25.8832 7.04247 25.8449 6.77788 25.7482C6.5133 25.6515 6.27275 25.4988 6.07276 25.3004C5.87276 25.102 5.71804 24.8627 5.61922 24.5989C5.5204 24.3352 5.47981 24.0531 5.50025 23.7722C5.52068 23.4912 5.60165 23.218 5.7376 22.9713C5.87355 22.7246 6.06126 22.5102 6.28785 22.3428C6.51445 22.1755 6.77456 22.0591 7.05035 22.0017C7.32615 21.9444 7.61108 21.9473 7.88562 22.0105L18.6906 24.5565C18.8836 24.6035 18.8616 24.8825 18.6656 24.9005ZM13.5456 15.1745L26.9566 26.0235C27.1096 26.1475 26.9716 26.3905 26.7866 26.3205L10.6556 20.2075C10.2578 20.0568 9.89753 19.8216 9.59953 19.518C9.30154 19.2145 9.07298 18.8499 8.92964 18.4495C8.78629 18.049 8.73158 17.6222 8.76929 17.1985C8.80699 16.7748 8.93621 16.3644 9.14801 15.9955C9.35982 15.6267 9.64916 15.3082 9.99607 15.0621C10.343 14.8159 10.7392 14.648 11.1573 14.57C11.5754 14.4919 12.0055 14.5055 12.4179 14.6099C12.8302 14.7142 13.215 14.9069 13.5456 15.1745Z" fill="#21D969"/>
</svg>
