<svg width="28" height="13" viewBox="0 0 28 13" fill="none" xmlns="http://www.w3.org/2000/svg">
<ellipse cx="5.00278" cy="3.20699" rx="2.00138" ry="2.20699" stroke="white" stroke-width="1.57625"/>
<path d="M9.00551 9.72262C9.00551 10.9415 9.00551 11.9296 5.00275 11.9296C1 11.9296 1 10.9415 1 9.72262C1 8.50373 2.79209 7.51562 5.00275 7.51562C7.21341 7.51562 9.00551 8.50373 9.00551 9.72262Z" stroke="white" stroke-width="1.57625"/>
<path d="M13.738 1V11.9296" stroke="white" stroke-width="1.5775"/>
<ellipse cx="22.4732" cy="3.20699" rx="2.00138" ry="2.20699" stroke="white" stroke-opacity="0.5" stroke-width="1.57625"/>
<path d="M26.476 9.72262C26.476 10.9415 26.476 11.9296 22.4732 11.9296C18.4705 11.9296 18.4705 10.9415 18.4705 9.72262C18.4705 8.50373 20.2626 7.51562 22.4732 7.51562C24.6839 7.51562 26.476 8.50373 26.476 9.72262Z" stroke="white" stroke-opacity="0.5" stroke-width="1.57625"/>
</svg>
