<svg width="32" height="32" viewBox="0 0 32 32" fill="none" xmlns="http://www.w3.org/2000/svg">
<circle cx="16" cy="16" r="16" fill="#3C3E50"/>
<path d="M20.6666 20.1332C20.7999 20.1332 20.9332 20.0665 20.9999 19.9999C21.1999 19.7999 21.1999 19.4665 20.9999 19.2665L11.6666 9.9332C11.4666 9.7332 11.1332 9.7332 10.9332 9.9332C10.7332 10.1332 10.7332 10.4665 10.9332 10.6665L20.2666 19.9999C20.3999 20.1332 20.5332 20.1332 20.6666 20.1332Z" fill="#21D969"/>
<path d="M13.8 20.1333H20.6666C20.9333 20.1333 21.2 19.9333 21.2 19.5999V12.7999C21.2 12.5333 21 12.2666 20.6666 12.2666C20.3333 12.2666 20.1333 12.4666 20.1333 12.7999V19.1333H13.8C13.5333 19.1333 13.2666 19.3333 13.2666 19.6666C13.2666 19.9999 13.5333 20.1333 13.8 20.1333Z" fill="#21D969"/>
<path opacity="0.4" d="M10.3333 23.2H21.6666C21.9333 23.2 22.2 23 22.2 22.6666C22.2 22.3333 22 22.1333 21.6666 22.1333H10.3333C10.0666 22.1333 9.79995 22.3333 9.79995 22.6666C9.79995 23 10.0666 23.2 10.3333 23.2Z" fill="#21D969"/>
</svg>
