<svg width="16" height="16" viewBox="0 0 16 16" fill="none" xmlns="http://www.w3.org/2000/svg">
<g clip-path="url(#clip0_6_13528)">
<path d="M2 7.94726L1.25 7.94726L2 7.94726ZM7.55556 13.5466L7.55556 14.2966L7.55556 14.2966L7.55556 13.5466ZM8.66667 13.5466L9.19908 14.0749C9.4892 13.7825 9.4892 13.3108 9.19908 13.0184L8.66667 13.5466ZM8.08797 11.8985C7.79622 11.6045 7.32135 11.6026 7.02731 11.8943C6.73327 12.1861 6.73141 12.661 7.02315 12.955L8.08797 11.8985ZM7.02315 14.1383C6.73141 14.4323 6.73327 14.9072 7.02731 15.1989C7.32135 15.4907 7.79623 15.4888 8.08797 15.1947L7.02315 14.1383ZM5.05946 3.80244C5.41232 3.5855 5.52252 3.12359 5.30558 2.77073C5.08865 2.41786 4.62674 2.30767 4.27388 2.5246L5.05946 3.80244ZM1.25 7.94726C1.25 11.4484 4.06755 14.2966 7.55556 14.2966L7.55556 12.7966C4.90706 12.7966 2.75 10.6311 2.75 7.94726L1.25 7.94726ZM7.55556 14.2966L8.66667 14.2966L8.66667 12.7966L7.55556 12.7966L7.55556 14.2966ZM9.19908 13.0184L8.08797 11.8985L7.02315 12.955L8.13426 14.0749L9.19908 13.0184ZM8.13426 13.0184L7.02315 14.1383L8.08797 15.1947L9.19908 14.0749L8.13426 13.0184ZM4.27388 2.5246C2.46049 3.63943 1.25 5.65182 1.25 7.94726L2.75 7.94726C2.75 6.19072 3.67466 4.65377 5.05946 3.80244L4.27388 2.5246Z" fill="white"/>
<path opacity="0.5" d="M14 8.07834L14.75 8.07834L14 8.07834ZM8.44442 2.45756L8.44442 1.70756L8.44442 2.45756ZM7.33331 2.45756L6.7999 1.93034C6.51112 2.22251 6.51112 2.69262 6.7999 2.98479L7.33331 2.45756ZM7.91101 4.10895C8.20219 4.40354 8.67705 4.40631 8.97165 4.11514C9.26625 3.82396 9.26902 3.34909 8.97784 3.05449L7.91101 4.10895ZM8.97784 1.86063C9.26902 1.56604 9.26625 1.09117 8.97165 0.799992C8.67705 0.508813 8.20219 0.511584 7.91101 0.806182L8.97784 1.86063ZM10.9394 12.2421C10.5869 12.4597 10.4775 12.9218 10.6951 13.2742C10.9126 13.6267 11.3747 13.7362 11.7272 13.5186L10.9394 12.2421ZM14.75 8.07834C14.75 4.56813 11.9351 1.70756 8.44442 1.70756L8.44442 3.20756C11.0902 3.20756 13.25 5.38001 13.25 8.07834L14.75 8.07834ZM8.44442 1.70756L7.33331 1.70756L7.33331 3.20756L8.44442 3.20756L8.44442 1.70756ZM6.7999 2.98479L7.91101 4.10895L8.97784 3.05449L7.86673 1.93034L6.7999 2.98479ZM7.86673 2.98479L8.97784 1.86063L7.91101 0.806182L6.7999 1.93034L7.86673 2.98479ZM11.7272 13.5186C13.5407 12.3994 14.75 10.3802 14.75 8.07834L13.25 8.07834C13.25 9.84397 12.3241 11.3876 10.9394 12.2421L11.7272 13.5186Z" fill="white"/>
</g>
<defs>
<clipPath id="clip0_6_13528">
<rect width="16" height="16" fill="white" transform="translate(0 16) rotate(-90)"/>
</clipPath>
</defs>
</svg>
