<svg width="44" height="44" viewBox="0 0 44 44" fill="none" xmlns="http://www.w3.org/2000/svg">
<rect width="44" height="44" rx="22" fill="#12193D"/>
<path d="M33.6736 33.1981L21.4868 21.4839L18.3654 24.514L27.4 33.1981H33.6736Z" fill="#21D969"/>
<path d="M10.3265 32.2713V33.1554H15.6688L20.695 28.3004L17.5661 25.2781L10.3265 32.2713Z" fill="#21D969"/>
<path d="M23.8846 11.2245H10.3265V30.826L14.7517 26.5516V15.499H23.8846C25.6442 15.499 27.0756 16.8817 27.0756 18.5813C27.0749 19.3772 26.7596 20.1404 26.1988 20.7036L24.2412 22.5945L27.3703 25.617L29.3454 23.7091L29.376 23.679C30.0482 23.0121 30.5821 22.2183 30.9468 21.3433C31.3115 20.4684 31.4998 19.5297 31.5009 18.5813C31.5009 14.5247 28.0842 11.2245 23.8846 11.2245Z" fill="#21D969"/>
</svg>
