<svg width="25" height="24" viewBox="0 0 25 24" fill="none" xmlns="http://www.w3.org/2000/svg">
<path d="M2.5249 12.0005C2.5249 6.47764 7.00206 2.00049 12.5249 2.00049C18.0477 2.00049 22.5249 6.47764 22.5249 12.0005C22.5249 17.5233 18.0477 22.0005 12.5249 22.0005C7.00206 22.0005 2.5249 17.5233 2.5249 12.0005Z" stroke="#C1C5E1" stroke-width="1.5"/>
<path d="M7.5249 8.00049L7.5249 16.0005" stroke="#21D969" stroke-width="1.5" stroke-linecap="round"/>
<path d="M12.5249 12.0005C12.5249 10.8959 13.4203 10.0005 14.5249 10.0005C15.6295 10.0005 16.5249 10.8959 16.5249 12.0005C16.5249 13.1051 15.6295 14.0005 14.5249 14.0005C13.4203 14.0005 12.5249 13.1051 12.5249 12.0005Z" stroke="#21D969" stroke-width="1.5"/>
<path d="M16.5249 10.0005L17.5249 9.00049" stroke="#21D969" stroke-width="1.5" stroke-linecap="round"/>
<path d="M11.5249 15.0005L12.5249 14.0005" stroke="#21D969" stroke-width="1.5" stroke-linecap="round"/>
<path d="M12.5249 10.0005L11.5249 9.00049" stroke="#21D969" stroke-width="1.5" stroke-linecap="round"/>
<path d="M17.5249 15.0005L16.5249 14.0005" stroke="#21D969" stroke-width="1.5" stroke-linecap="round"/>
</svg>
