<svg width="40" height="40" viewBox="0 0 40 40" fill="none" xmlns="http://www.w3.org/2000/svg">
<rect x="0.5" y="0.5" width="39" height="39" rx="9.5" stroke="#C1C5E1"/>
<path opacity="0.5" fill-rule="evenodd" clip-rule="evenodd" d="M11 22.25C11.4142 22.25 11.75 22.5858 11.75 23C11.75 24.4354 11.7516 25.4365 11.8531 26.1919C11.9518 26.9257 12.1322 27.3142 12.409 27.591C12.6858 27.8678 13.0743 28.0482 13.8081 28.1469C14.5635 28.2484 15.5646 28.25 17 28.25H23C24.4354 28.25 25.4365 28.2484 26.1919 28.1469C26.9257 28.0482 27.3142 27.8678 27.591 27.591C27.8678 27.3142 28.0482 26.9257 28.1469 26.1919C28.2484 25.4365 28.25 24.4354 28.25 23C28.25 22.5858 28.5858 22.25 29 22.25C29.4142 22.25 29.75 22.5858 29.75 23V23.0549C29.75 24.4225 29.75 25.5248 29.6335 26.3918C29.5125 27.2919 29.2536 28.0497 28.6517 28.6516C28.0497 29.2536 27.2919 29.5125 26.3918 29.6335C25.5248 29.75 24.4225 29.75 23.0549 29.75H16.9451C15.5775 29.75 14.4752 29.75 13.6082 29.6335C12.7081 29.5125 11.9503 29.2536 11.3484 28.6517C10.7464 28.0497 10.4875 27.2919 10.3665 26.3918C10.25 25.5248 10.25 24.4225 10.25 23.0549C10.25 23.0366 10.25 23.0183 10.25 23C10.25 22.5858 10.5858 22.25 11 22.25Z" fill="#C7C8D3"/>
<path fill-rule="evenodd" clip-rule="evenodd" d="M20 24.75C20.2106 24.75 20.4114 24.6615 20.5535 24.5061L24.5535 20.1311C24.833 19.8254 24.8118 19.351 24.5061 19.0715C24.2004 18.792 23.726 18.8132 23.4465 19.1189L20.75 22.0682V11C20.75 10.5858 20.4142 10.25 20 10.25C19.5858 10.25 19.25 10.5858 19.25 11V22.0682L16.5535 19.1189C16.274 18.8132 15.7996 18.792 15.4939 19.0715C15.1882 19.351 15.167 19.8254 15.4465 20.1311L19.4465 24.5061C19.5886 24.6615 19.7894 24.75 20 24.75Z" fill="#C7C8D3"/>
</svg>
