<svg width="32" height="32" viewBox="0 0 32 32" fill="none" xmlns="http://www.w3.org/2000/svg">
<circle cx="16" cy="16" r="16" fill="#3C3E50"/>
<path d="M14 15.6667C14 16.5871 13.2538 17.3333 12.3333 17.3333C11.4128 17.3333 10.6666 16.5871 10.6666 15.6667C10.6666 14.7462 11.4128 14 12.3333 14C13.2538 14 14 14.7462 14 15.6667Z" stroke="#21D969" stroke-width="1.1"/>
<path opacity="0.5" d="M17.5471 19.2009L14 16.8599" stroke="#21D969" stroke-width="1.1" stroke-linecap="round"/>
<path opacity="0.5" d="M17.6139 12.5596L14.0668 14.9007" stroke="#21D969" stroke-width="1.1" stroke-linecap="round"/>
<path d="M20.6667 20.3332C20.6667 21.2536 19.9205 21.9998 19 21.9998C18.0796 21.9998 17.3334 21.2536 17.3334 20.3332C17.3334 19.4127 18.0796 18.6665 19 18.6665C19.9205 18.6665 20.6667 19.4127 20.6667 20.3332Z" stroke="#21D969" stroke-width="1.1"/>
<path d="M20.6667 11.6667C20.6667 12.5871 19.9205 13.3333 19 13.3333C18.0796 13.3333 17.3334 12.5871 17.3334 11.6667C17.3334 10.7462 18.0796 10 19 10C19.9205 10 20.6667 10.7462 20.6667 11.6667Z" stroke="#21D969" stroke-width="1.1"/>
</svg>
